<?xml version="1.0" encoding="utf-8"?>
<!-- Generator: Adobe Illustrator 22.1.0, SVG Export Plug-In . SVG Version: 6.00 Build 0)  -->
<svg version="1.1" id="Capa_1" xmlns="http://www.w3.org/2000/svg" xmlns:xlink="http://www.w3.org/1999/xlink" x="0px" y="0px"
	 viewBox="0 0 427 524.8" style="enable-background:new 0 0 427 524.8;" xml:space="preserve">
<style type="text/css">
	.st0{fill:url(#SVGID_1_);}
</style>
<linearGradient id="SVGID_1_" gradientUnits="userSpaceOnUse" x1="223.8673" y1="180.4779" x2="164.8673" y2="534.4779">
	<stop  offset="0" style="stop-color:#2BB4E6"/>
	<stop  offset="1" style="stop-color:#163A67"/>
</linearGradient>
<path class="st0" d="M382.4,245.3c-18.9,2.7-52.6,5.1-106.1-7.2c-33.1-8.3-61.8-18.5-79.2-27.5c-1.2,1.1-2.6,2-4,2.7
	c1.4,1.3,2.4,3.2,2.6,5.2l29.1,265l-0.2,0l-4.2-0.4v0.2c-4.8-0.4-13.6-1.9-19.5-7.6c-4.5-4.3-6.8-10.4-6.8-18.3v-4.3h-13v4.3
	c0,6.8-2.2,12.4-6.4,16.5c-5.8,5.6-14.6,7.9-21.2,8.9l24.9-264.3c0.1-1.5,0.7-2.8,1.4-4c-0.7-0.2-1.3-0.4-2-0.7
	c-38.1,36.4-135,113-157.8,133c-29.1,25.5-6.3-44.2-6.3-44.2c11.4-15.3,33.6-40.8,80.1-70c27.7-16.7,53.9-29.3,72.5-35.6
	c0-1.6,0.1-3.2,0.5-4.8c0.8-3.1,2.3-5.7,4.2-7.9C138.7,143.9,72.6,39.2,54.5,14.5c-22.8-31.3,44.6-2.3,44.6-2.3
	c14.2,12.8,35.4,37.2,60.2,86.1c15.4,32,26.2,61.7,30,80.8c6.6,1.7,11.4,6.7,13.1,12.8c52,1,176.3,15.6,206.8,17.5
	C447.9,212,382.4,245.3,382.4,245.3z M278.4,480c-5.4-5.1-8.1-12.3-8.1-21.4H266c0,8.1-2.6,14.6-7.7,19.6
	c-11.8,11.4-33.1,10.7-33.3,10.7l-0.1,2.1l-0.1-2.1c-0.2,0-16.4,0.7-26.4-8.9c-5.4-5.1-8.1-12.3-8.1-21.4h-4.3
	c0,8.1-2.6,14.6-7.7,19.6c-10.9,10.5-29.9,10.8-32.9,10.7v0c0,0-0.1,0-0.2,0c-0.2,0-0.3,0-0.3,0v0c-2.5,0-16.8-0.1-26-8.9
	c-5.4-5.1-8.1-12.3-8.1-21.4h-4.3c0,8.1-2.6,14.6-7.7,19.6c-11.8,11.4-33.1,10.7-33.3,10.7l-0.2,4.3c0.9,0,23.4,0.7,36.5-11.9
	c3-2.9,5.2-6.2,6.7-9.9c1.6,4.6,4.1,8.5,7.5,11.7c9.8,9.4,24.1,10.1,28.4,10.1c0.4,0,0.7,0,0.9,0c3.4,0,23.8-0.1,36-11.9
	c3-2.9,5.2-6.2,6.7-9.9c1.6,4.6,4.1,8.5,7.5,11.7c9.8,9.4,24.1,10.1,28.4,10.1c0.6,0,0.9,0,1.1,0c1.6,0,23.5,0.5,36.4-11.9
	c3-2.9,5.2-6.2,6.7-9.9c1.6,4.6,4.1,8.5,7.5,11.7c9.8,9.4,24.1,10.1,28.4,10.1c0.7,0,1.1,0,1.2,0l-0.2-4.3
	C304.7,488.9,288.5,489.6,278.4,480z M278.4,511.5c-5.4-5.1-8.1-12.3-8.1-21.4H266c0,8.1-2.6,14.6-7.7,19.6
	c-11.8,11.3-33.1,10.7-33.3,10.7l-0.1,2.1l-0.1-2.1c-0.2,0-16.4,0.7-26.4-8.9c-5.4-5.1-8.1-12.3-8.1-21.4h-4.3
	c0,8.1-2.6,14.6-7.7,19.6c-10.9,10.5-29.9,10.8-32.9,10.7v0c0,0-0.1,0-0.2,0c-0.2,0-0.3,0-0.3,0v0c-2.5,0-16.8-0.1-26-8.9
	c-5.4-5.1-8.1-12.3-8.1-21.4h-4.3c0,8.1-2.6,14.6-7.7,19.6c-11.8,11.4-33.1,10.7-33.3,10.7l-0.2,4.3c0.9,0,23.4,0.7,36.5-11.9
	c3-2.8,5.2-6.2,6.7-9.9c1.6,4.6,4.1,8.5,7.5,11.7c9.8,9.4,24.1,10.1,28.4,10.1c0.4,0,0.7,0,0.9,0c3.4,0,23.8-0.1,36-11.9
	c3-2.9,5.2-6.2,6.7-9.9c1.6,4.6,4.1,8.5,7.5,11.7c9.8,9.4,24.1,10.1,28.4,10.1c0.6,0,0.9,0,1.1,0c1.6,0,23.5,0.5,36.4-11.9
	c3-2.9,5.2-6.2,6.7-9.9c1.6,4.6,4.1,8.5,7.5,11.7c9.8,9.4,24.1,10.1,28.4,10.1c0.7,0,1.1,0,1.2,0l-0.2-4.3
	C304.7,520.5,288.5,521.1,278.4,511.5z"/>
</svg>
